<svg version="1.1" xmlns="http://www.w3.org/2000/svg" xmlns:xlink="http://www.w3.org/1999/xlink" width="716" height="636"><defs/><g><text fill="#eeeeee" stroke="none" font-family="Arial" font-size="24px" font-style="normal" font-weight="normal" text-decoration="none" x="0" y="0">UNREGISTERED</text><text fill="#eeeeee" stroke="none" font-family="Arial" font-size="24px" font-style="normal" font-weight="normal" text-decoration="none" x="0" y="30">UNREGISTERED</text><text fill="#eeeeee" stroke="none" font-family="Arial" font-size="24px" font-style="normal" font-weight="normal" text-decoration="none" x="0" y="60">UNREGISTERED</text><text fill="#eeeeee" stroke="none" font-family="Arial" font-size="24px" font-style="normal" font-weight="normal" text-decoration="none" x="0" y="90">UNREGISTERED</text><text fill="#eeeeee" stroke="none" font-family="Arial" font-size="24px" font-style="normal" font-weight="normal" text-decoration="none" x="0" y="120">UNREGISTERED</text><text fill="#eeeeee" stroke="none" font-family="Arial" font-size="24px" font-style="normal" font-weight="normal" text-decoration="none" x="0" y="150">UNREGISTERED</text><text fill="#eeeeee" stroke="none" font-family="Arial" font-size="24px" font-style="normal" font-weight="normal" text-decoration="none" x="0" y="180">UNREGISTERED</text><text fill="#eeeeee" stroke="none" font-family="Arial" font-size="24px" font-style="normal" font-weight="normal" text-decoration="none" x="0" y="210">UNREGISTERED</text><text fill="#eeeeee" stroke="none" font-family="Arial" font-size="24px" font-style="normal" font-weight="normal" text-decoration="none" x="0" y="240">UNREGISTERED</text><text fill="#eeeeee" stroke="none" font-family="Arial" font-size="24px" font-style="normal" font-weight="normal" text-decoration="none" x="0" y="270">UNREGISTERED</text><text fill="#eeeeee" stroke="none" font-family="Arial" font-size="24px" font-style="normal" font-weight="normal" text-decoration="none" x="0" y="300">UNREGISTERED</text><text fill="#eeeeee" stroke="none" font-family="Arial" font-size="24px" font-style="normal" font-weight="normal" text-decoration="none" x="0" y="330">UNREGISTERED</text><text fill="#eeeeee" stroke="none" font-family="Arial" font-size="24px" font-style="normal" font-weight="normal" text-decoration="none" x="0" y="360">UNREGISTERED</text><text fill="#eeeeee" stroke="none" font-family="Arial" font-size="24px" font-style="normal" font-weight="normal" text-decoration="none" x="0" y="390">UNREGISTERED</text><text fill="#eeeeee" stroke="none" font-family="Arial" font-size="24px" font-style="normal" font-weight="normal" text-decoration="none" x="0" y="420">UNREGISTERED</text><text fill="#eeeeee" stroke="none" font-family="Arial" font-size="24px" font-style="normal" font-weight="normal" text-decoration="none" x="0" y="450">UNREGISTERED</text><text fill="#eeeeee" stroke="none" font-family="Arial" font-size="24px" font-style="normal" font-weight="normal" text-decoration="none" x="0" y="480">UNREGISTERED</text><text fill="#eeeeee" stroke="none" font-family="Arial" font-size="24px" font-style="normal" font-weight="normal" text-decoration="none" x="0" y="510">UNREGISTERED</text><text fill="#eeeeee" stroke="none" font-family="Arial" font-size="24px" font-style="normal" font-weight="normal" text-decoration="none" x="0" y="540">UNREGISTERED</text><text fill="#eeeeee" stroke="none" font-family="Arial" font-size="24px" font-style="normal" font-weight="normal" text-decoration="none" x="0" y="570">UNREGISTERED</text><text fill="#eeeeee" stroke="none" font-family="Arial" font-size="24px" font-style="normal" font-weight="normal" text-decoration="none" x="0" y="600">UNREGISTERED</text><text fill="#eeeeee" stroke="none" font-family="Arial" font-size="24px" font-style="normal" font-weight="normal" text-decoration="none" x="0" y="630">UNREGISTERED</text><text fill="#eeeeee" stroke="none" font-family="Arial" font-size="24px" font-style="normal" font-weight="normal" text-decoration="none" x="200" y="0">UNREGISTERED</text><text fill="#eeeeee" stroke="none" font-family="Arial" font-size="24px" font-style="normal" font-weight="normal" text-decoration="none" x="200" y="30">UNREGISTERED</text><text fill="#eeeeee" stroke="none" font-family="Arial" font-size="24px" font-style="normal" font-weight="normal" text-decoration="none" x="200" y="60">UNREGISTERED</text><text fill="#eeeeee" stroke="none" font-family="Arial" font-size="24px" font-style="normal" font-weight="normal" text-decoration="none" x="200" y="90">UNREGISTERED</text><text fill="#eeeeee" stroke="none" font-family="Arial" font-size="24px" font-style="normal" font-weight="normal" text-decoration="none" x="200" y="120">UNREGISTERED</text><text fill="#eeeeee" stroke="none" font-family="Arial" font-size="24px" font-style="normal" font-weight="normal" text-decoration="none" x="200" y="150">UNREGISTERED</text><text fill="#eeeeee" stroke="none" font-family="Arial" font-size="24px" font-style="normal" font-weight="normal" text-decoration="none" x="200" y="180">UNREGISTERED</text><text fill="#eeeeee" stroke="none" font-family="Arial" font-size="24px" font-style="normal" font-weight="normal" text-decoration="none" x="200" y="210">UNREGISTERED</text><text fill="#eeeeee" stroke="none" font-family="Arial" font-size="24px" font-style="normal" font-weight="normal" text-decoration="none" x="200" y="240">UNREGISTERED</text><text fill="#eeeeee" stroke="none" font-family="Arial" font-size="24px" font-style="normal" font-weight="normal" text-decoration="none" x="200" y="270">UNREGISTERED</text><text fill="#eeeeee" stroke="none" font-family="Arial" font-size="24px" font-style="normal" font-weight="normal" text-decoration="none" x="200" y="300">UNREGISTERED</text><text fill="#eeeeee" stroke="none" font-family="Arial" font-size="24px" font-style="normal" font-weight="normal" text-decoration="none" x="200" y="330">UNREGISTERED</text><text fill="#eeeeee" stroke="none" font-family="Arial" font-size="24px" font-style="normal" font-weight="normal" text-decoration="none" x="200" y="360">UNREGISTERED</text><text fill="#eeeeee" stroke="none" font-family="Arial" font-size="24px" font-style="normal" font-weight="normal" text-decoration="none" x="200" y="390">UNREGISTERED</text><text fill="#eeeeee" stroke="none" font-family="Arial" font-size="24px" font-style="normal" font-weight="normal" text-decoration="none" x="200" y="420">UNREGISTERED</text><text fill="#eeeeee" stroke="none" font-family="Arial" font-size="24px" font-style="normal" font-weight="normal" text-decoration="none" x="200" y="450">UNREGISTERED</text><text fill="#eeeeee" stroke="none" font-family="Arial" font-size="24px" font-style="normal" font-weight="normal" text-decoration="none" x="200" y="480">UNREGISTERED</text><text fill="#eeeeee" stroke="none" font-family="Arial" font-size="24px" font-style="normal" font-weight="normal" text-decoration="none" x="200" y="510">UNREGISTERED</text><text fill="#eeeeee" stroke="none" font-family="Arial" font-size="24px" font-style="normal" font-weight="normal" text-decoration="none" x="200" y="540">UNREGISTERED</text><text fill="#eeeeee" stroke="none" font-family="Arial" font-size="24px" font-style="normal" font-weight="normal" text-decoration="none" x="200" y="570">UNREGISTERED</text><text fill="#eeeeee" stroke="none" font-family="Arial" font-size="24px" font-style="normal" font-weight="normal" text-decoration="none" x="200" y="600">UNREGISTERED</text><text fill="#eeeeee" stroke="none" font-family="Arial" font-size="24px" font-style="normal" font-weight="normal" text-decoration="none" x="200" y="630">UNREGISTERED</text><text fill="#eeeeee" stroke="none" font-family="Arial" font-size="24px" font-style="normal" font-weight="normal" text-decoration="none" x="400" y="0">UNREGISTERED</text><text fill="#eeeeee" stroke="none" font-family="Arial" font-size="24px" font-style="normal" font-weight="normal" text-decoration="none" x="400" y="30">UNREGISTERED</text><text fill="#eeeeee" stroke="none" font-family="Arial" font-size="24px" font-style="normal" font-weight="normal" text-decoration="none" x="400" y="60">UNREGISTERED</text><text fill="#eeeeee" stroke="none" font-family="Arial" font-size="24px" font-style="normal" font-weight="normal" text-decoration="none" x="400" y="90">UNREGISTERED</text><text fill="#eeeeee" stroke="none" font-family="Arial" font-size="24px" font-style="normal" font-weight="normal" text-decoration="none" x="400" y="120">UNREGISTERED</text><text fill="#eeeeee" stroke="none" font-family="Arial" font-size="24px" font-style="normal" font-weight="normal" text-decoration="none" x="400" y="150">UNREGISTERED</text><text fill="#eeeeee" stroke="none" font-family="Arial" font-size="24px" font-style="normal" font-weight="normal" text-decoration="none" x="400" y="180">UNREGISTERED</text><text fill="#eeeeee" stroke="none" font-family="Arial" font-size="24px" font-style="normal" font-weight="normal" text-decoration="none" x="400" y="210">UNREGISTERED</text><text fill="#eeeeee" stroke="none" font-family="Arial" font-size="24px" font-style="normal" font-weight="normal" text-decoration="none" x="400" y="240">UNREGISTERED</text><text fill="#eeeeee" stroke="none" font-family="Arial" font-size="24px" font-style="normal" font-weight="normal" text-decoration="none" x="400" y="270">UNREGISTERED</text><text fill="#eeeeee" stroke="none" font-family="Arial" font-size="24px" font-style="normal" font-weight="normal" text-decoration="none" x="400" y="300">UNREGISTERED</text><text fill="#eeeeee" stroke="none" font-family="Arial" font-size="24px" font-style="normal" font-weight="normal" text-decoration="none" x="400" y="330">UNREGISTERED</text><text fill="#eeeeee" stroke="none" font-family="Arial" font-size="24px" font-style="normal" font-weight="normal" text-decoration="none" x="400" y="360">UNREGISTERED</text><text fill="#eeeeee" stroke="none" font-family="Arial" font-size="24px" font-style="normal" font-weight="normal" text-decoration="none" x="400" y="390">UNREGISTERED</text><text fill="#eeeeee" stroke="none" font-family="Arial" font-size="24px" font-style="normal" font-weight="normal" text-decoration="none" x="400" y="420">UNREGISTERED</text><text fill="#eeeeee" stroke="none" font-family="Arial" font-size="24px" font-style="normal" font-weight="normal" text-decoration="none" x="400" y="450">UNREGISTERED</text><text fill="#eeeeee" stroke="none" font-family="Arial" font-size="24px" font-style="normal" font-weight="normal" text-decoration="none" x="400" y="480">UNREGISTERED</text><text fill="#eeeeee" stroke="none" font-family="Arial" font-size="24px" font-style="normal" font-weight="normal" text-decoration="none" x="400" y="510">UNREGISTERED</text><text fill="#eeeeee" stroke="none" font-family="Arial" font-size="24px" font-style="normal" font-weight="normal" text-decoration="none" x="400" y="540">UNREGISTERED</text><text fill="#eeeeee" stroke="none" font-family="Arial" font-size="24px" font-style="normal" font-weight="normal" text-decoration="none" x="400" y="570">UNREGISTERED</text><text fill="#eeeeee" stroke="none" font-family="Arial" font-size="24px" font-style="normal" font-weight="normal" text-decoration="none" x="400" y="600">UNREGISTERED</text><text fill="#eeeeee" stroke="none" font-family="Arial" font-size="24px" font-style="normal" font-weight="normal" text-decoration="none" x="400" y="630">UNREGISTERED</text><text fill="#eeeeee" stroke="none" font-family="Arial" font-size="24px" font-style="normal" font-weight="normal" text-decoration="none" x="600" y="0">UNREGISTERED</text><text fill="#eeeeee" stroke="none" font-family="Arial" font-size="24px" font-style="normal" font-weight="normal" text-decoration="none" x="600" y="30">UNREGISTERED</text><text fill="#eeeeee" stroke="none" font-family="Arial" font-size="24px" font-style="normal" font-weight="normal" text-decoration="none" x="600" y="60">UNREGISTERED</text><text fill="#eeeeee" stroke="none" font-family="Arial" font-size="24px" font-style="normal" font-weight="normal" text-decoration="none" x="600" y="90">UNREGISTERED</text><text fill="#eeeeee" stroke="none" font-family="Arial" font-size="24px" font-style="normal" font-weight="normal" text-decoration="none" x="600" y="120">UNREGISTERED</text><text fill="#eeeeee" stroke="none" font-family="Arial" font-size="24px" font-style="normal" font-weight="normal" text-decoration="none" x="600" y="150">UNREGISTERED</text><text fill="#eeeeee" stroke="none" font-family="Arial" font-size="24px" font-style="normal" font-weight="normal" text-decoration="none" x="600" y="180">UNREGISTERED</text><text fill="#eeeeee" stroke="none" font-family="Arial" font-size="24px" font-style="normal" font-weight="normal" text-decoration="none" x="600" y="210">UNREGISTERED</text><text fill="#eeeeee" stroke="none" font-family="Arial" font-size="24px" font-style="normal" font-weight="normal" text-decoration="none" x="600" y="240">UNREGISTERED</text><text fill="#eeeeee" stroke="none" font-family="Arial" font-size="24px" font-style="normal" font-weight="normal" text-decoration="none" x="600" y="270">UNREGISTERED</text><text fill="#eeeeee" stroke="none" font-family="Arial" font-size="24px" font-style="normal" font-weight="normal" text-decoration="none" x="600" y="300">UNREGISTERED</text><text fill="#eeeeee" stroke="none" font-family="Arial" font-size="24px" font-style="normal" font-weight="normal" text-decoration="none" x="600" y="330">UNREGISTERED</text><text fill="#eeeeee" stroke="none" font-family="Arial" font-size="24px" font-style="normal" font-weight="normal" text-decoration="none" x="600" y="360">UNREGISTERED</text><text fill="#eeeeee" stroke="none" font-family="Arial" font-size="24px" font-style="normal" font-weight="normal" text-decoration="none" x="600" y="390">UNREGISTERED</text><text fill="#eeeeee" stroke="none" font-family="Arial" font-size="24px" font-style="normal" font-weight="normal" text-decoration="none" x="600" y="420">UNREGISTERED</text><text fill="#eeeeee" stroke="none" font-family="Arial" font-size="24px" font-style="normal" font-weight="normal" text-decoration="none" x="600" y="450">UNREGISTERED</text><text fill="#eeeeee" stroke="none" font-family="Arial" font-size="24px" font-style="normal" font-weight="normal" text-decoration="none" x="600" y="480">UNREGISTERED</text><text fill="#eeeeee" stroke="none" font-family="Arial" font-size="24px" font-style="normal" font-weight="normal" text-decoration="none" x="600" y="510">UNREGISTERED</text><text fill="#eeeeee" stroke="none" font-family="Arial" font-size="24px" font-style="normal" font-weight="normal" text-decoration="none" x="600" y="540">UNREGISTERED</text><text fill="#eeeeee" stroke="none" font-family="Arial" font-size="24px" font-style="normal" font-weight="normal" text-decoration="none" x="600" y="570">UNREGISTERED</text><text fill="#eeeeee" stroke="none" font-family="Arial" font-size="24px" font-style="normal" font-weight="normal" text-decoration="none" x="600" y="600">UNREGISTERED</text><text fill="#eeeeee" stroke="none" font-family="Arial" font-size="24px" font-style="normal" font-weight="normal" text-decoration="none" x="600" y="630">UNREGISTERED</text><g transform="translate(-174,10) scale(1,1)"><path fill="none" stroke="#000000" d="M 184 0 L 880 0 L 880 616 L 184 616 L 184 0" stroke-miterlimit="10"/></g><g transform="translate(-174,10) scale(1,1)"><path fill="#ffffff" stroke="none" d="M 184 0 L 184 22 L 292.47900390625 22 L 303.47900390625 11 L 303.47900390625 0 L 184 0"/></g><g transform="translate(-174,10) scale(1,1)"><path fill="none" stroke="#000000" d="M 184 0 L 184 22 L 292.47900390625 22 L 303.47900390625 11 L 303.47900390625 0 L 184 0 L 184 0" stroke-miterlimit="10"/></g><g transform="translate(-174,10) scale(1,1)"><g><path fill="none" stroke="none"/><text fill="#000000" stroke="none" font-family="Arial" font-size="13px" font-style="normal" font-weight="normal" text-decoration="none" x="208.72998046875" y="16">Finish Project</text></g></g><g transform="translate(-174,10) scale(1,1)"><g><path fill="none" stroke="none"/><text fill="#000000" stroke="none" font-family="Arial" font-size="13px" font-style="normal" font-weight="bold" text-decoration="none" x="188.279541015625" y="16">sd</text></g></g><g transform="translate(-174,10) scale(1,1)"><rect fill="#C0C0C0" stroke="none" x="335" y="47" width="76.07177734375" height="39" opacity="0.2"/></g><g transform="translate(-174,10) scale(1,1)"><rect fill="#ffffff" stroke="none" x="328" y="40" width="76.07177734375" height="39"/></g><g transform="translate(-174,10) scale(1,1)"><path fill="none" stroke="#000000" d="M 328 40 L 404.07177734375 40 L 404.07177734375 79 L 328 79 L 328 40 Z Z" stroke-miterlimit="10"/></g><g transform="translate(-174,10) scale(1,1)"><g><path fill="none" stroke="none"/><text fill="#000000" stroke="none" font-family="Arial" font-size="13px" font-style="normal" font-weight="bold" text-decoration="none" x="337.5" y="58">ProjectUI</text></g></g><g transform="translate(-174,10) scale(1,1)"><path fill="none" stroke="#000000" d="M 367.5 80 L 367.5 592" stroke-miterlimit="10" stroke-dasharray="3"/></g><g transform="translate(-174,10) scale(1,1)"><rect fill="#ffffff" stroke="none" x="192" y="96.5" width="14" height="14"/></g><g transform="translate(-174,10) scale(1,1)"><path fill="none" stroke="#000000" d="M 192 96.5 L 206 96.5 L 206 110.5 L 192 110.5 L 192 96.5 Z Z" stroke-miterlimit="10"/></g><g transform="translate(-174,10) scale(1,1)"><rect fill="#C0C0C0" stroke="none" x="471" y="47" width="125.18359375" height="39" opacity="0.2"/></g><g transform="translate(-174,10) scale(1,1)"><rect fill="#ffffff" stroke="none" x="464" y="40" width="125.18359375" height="39"/></g><g transform="translate(-174,10) scale(1,1)"><path fill="none" stroke="#000000" d="M 464 40 L 589.18359375 40 L 589.18359375 79 L 464 79 L 464 40 Z Z" stroke-miterlimit="10"/></g><g transform="translate(-174,10) scale(1,1)"><g><path fill="none" stroke="none"/><text fill="#000000" stroke="none" font-family="Arial" font-size="13px" font-style="normal" font-weight="bold" text-decoration="none" x="473.5" y="58">ProjectController</text></g></g><g transform="translate(-174,10) scale(1,1)"><path fill="none" stroke="#000000" d="M 527.5 80 L 527.5 592" stroke-miterlimit="10" stroke-dasharray="3"/></g><g transform="translate(-174,10) scale(1,1)"><rect fill="#C0C0C0" stroke="none" x="631" y="47" width="71.736328125" height="39" opacity="0.2"/></g><g transform="translate(-174,10) scale(1,1)"><rect fill="#ffffff" stroke="none" x="624" y="40" width="71.736328125" height="39"/></g><g transform="translate(-174,10) scale(1,1)"><path fill="none" stroke="#000000" d="M 624 40 L 695.736328125 40 L 695.736328125 79 L 624 79 L 624 40 Z Z" stroke-miterlimit="10"/></g><g transform="translate(-174,10) scale(1,1)"><g><path fill="none" stroke="none"/><text fill="#000000" stroke="none" font-family="Arial" font-size="13px" font-style="normal" font-weight="bold" text-decoration="none" x="637.832275390625" y="58">Project</text></g></g><g transform="translate(-174,10) scale(1,1)"><path fill="none" stroke="#000000" d="M 660.5 80 L 660.5 592" stroke-miterlimit="10" stroke-dasharray="3"/></g><g transform="translate(-174,10) scale(1,1)"><rect fill="#ffffff" stroke="none" x="192" y="200.5" width="14" height="14"/></g><g transform="translate(-174,10) scale(1,1)"><path fill="none" stroke="#000000" d="M 192 200.5 L 206 200.5 L 206 214.5 L 192 214.5 L 192 200.5 Z Z" stroke-miterlimit="10"/></g><g transform="translate(-174,10) scale(1,1)"><rect fill="#ffffff" stroke="none" x="192" y="330.5" width="14" height="14"/></g><g transform="translate(-174,10) scale(1,1)"><path fill="none" stroke="#000000" d="M 192 330.5 L 206 330.5 L 206 344.5 L 192 344.5 L 192 330.5 Z Z" stroke-miterlimit="10"/></g><g transform="translate(-174,10) scale(1,1)"><rect fill="#C0C0C0" stroke="none" x="767" y="47" width="71.736328125" height="39" opacity="0.2"/></g><g transform="translate(-174,10) scale(1,1)"><rect fill="#ffffff" stroke="none" x="760" y="40" width="71.736328125" height="39"/></g><g transform="translate(-174,10) scale(1,1)"><path fill="none" stroke="#000000" d="M 760 40 L 831.736328125 40 L 831.736328125 79 L 760 79 L 760 40 Z Z" stroke-miterlimit="10"/></g><g transform="translate(-174,10) scale(1,1)"><g><path fill="none" stroke="none"/><text fill="#000000" stroke="none" font-family="Arial" font-size="13px" font-style="normal" font-weight="bold" text-decoration="none" x="772.023193359375" y="58">Archive</text></g></g><g transform="translate(-174,10) scale(1,1)"><path fill="none" stroke="#000000" d="M 796.5 80 L 796.5 592" stroke-miterlimit="10" stroke-dasharray="3"/></g><g transform="translate(-174,10) scale(1,1)"><rect fill="#ffffff" stroke="none" x="184" y="432.5" width="14" height="14"/></g><g transform="translate(-174,10) scale(1,1)"><path fill="none" stroke="#000000" d="M 184 432.5 L 198 432.5 L 198 446.5 L 184 446.5 L 184 432.5 Z Z" stroke-miterlimit="10"/></g><g transform="translate(-174,10) scale(1,1)"><path fill="none" stroke="#000000" d="M 206 104 L 360 104" stroke-miterlimit="10"/></g><g transform="translate(-174,10) scale(1,1)"><path fill="#000000" stroke="none" d="M 349.83732514237585 108.20951775601598 L 360 104 L 349.83732514237585 99.79048224398402"/></g><g transform="translate(-174,10) scale(1,1)"><path fill="none" stroke="#000000" d="M 349.83732514237585 108.20951775601598 L 360 104 L 349.83732514237585 99.79048224398402 L 349.83732514237585 108.20951775601598" stroke-miterlimit="10"/></g><g transform="translate(-174,10) scale(1,1)"><g><path fill="none" stroke="none"/><text fill="#000000" stroke="none" font-family="Arial" font-size="13px" font-style="normal" font-weight="normal" text-decoration="none" x="231.5" y="98">1 : showProjects</text></g></g><g transform="translate(-174,10) scale(1,1)"><rect fill="#ffffff" stroke="none" x="360" y="104" width="13" height="28"/></g><g transform="translate(-174,10) scale(1,1)"><path fill="none" stroke="#000000" d="M 360 104 L 373 104 L 373 132 L 360 132 L 360 104 Z Z" stroke-miterlimit="10"/></g><g transform="translate(-174,10) scale(1,1)"><path fill="none" stroke="#000000" d="M 373 119 L 520 119" stroke-miterlimit="10"/></g><g transform="translate(-174,10) scale(1,1)"><path fill="#000000" stroke="none" d="M 509.83732514237585 123.20951775601598 L 520 119 L 509.83732514237585 114.79048224398402"/></g><g transform="translate(-174,10) scale(1,1)"><path fill="none" stroke="#000000" d="M 509.83732514237585 123.20951775601598 L 520 119 L 509.83732514237585 114.79048224398402 L 509.83732514237585 123.20951775601598" stroke-miterlimit="10"/></g><g transform="translate(-174,10) scale(1,1)"><g><path fill="none" stroke="none"/><text fill="#000000" stroke="none" font-family="Arial" font-size="13px" font-style="normal" font-weight="normal" text-decoration="none" x="404.5" y="114">2 : getProjects</text></g></g><g transform="translate(-174,10) scale(1,1)"><rect fill="#ffffff" stroke="none" x="520" y="119" width="13" height="28"/></g><g transform="translate(-174,10) scale(1,1)"><path fill="none" stroke="#000000" d="M 520 119 L 533 119 L 533 147 L 520 147 L 520 119 Z Z" stroke-miterlimit="10"/></g><g transform="translate(-174,10) scale(1,1)"><path fill="none" stroke="#000000" d="M 533 125 L 653 125" stroke-miterlimit="10"/></g><g transform="translate(-174,10) scale(1,1)"><path fill="#000000" stroke="none" d="M 642.8373251423759 129.209517756016 L 653 125 L 642.8373251423758 120.79048224398402"/></g><g transform="translate(-174,10) scale(1,1)"><path fill="none" stroke="#000000" d="M 642.8373251423759 129.209517756016 L 653 125 L 642.8373251423758 120.79048224398402 L 642.8373251423759 129.209517756016" stroke-miterlimit="10"/></g><g transform="translate(-174,10) scale(1,1)"><g><path fill="none" stroke="none"/><text fill="#000000" stroke="none" font-family="Arial" font-size="13px" font-style="normal" font-weight="normal" text-decoration="none" x="538.5" y="120">3 : retrieveProjects</text></g></g><g transform="translate(-174,10) scale(1,1)"><rect fill="#ffffff" stroke="none" x="653" y="125" width="13" height="43"/></g><g transform="translate(-174,10) scale(1,1)"><path fill="none" stroke="#000000" d="M 653 125 L 666 125 L 666 168 L 653 168 L 653 125 Z Z" stroke-miterlimit="10"/></g><g transform="translate(-174,10) scale(1,1)"><path fill="none" stroke="#000000" d="M 653 160 L 367 160" stroke-miterlimit="10" stroke-dasharray="3"/></g><g transform="translate(-174,10) scale(1,1)"><path fill="none" stroke="#000000" d="M 377.16267485762415 155.790482243984 L 367 160 L 377.16267485762415 164.209517756016" stroke-miterlimit="10"/></g><g transform="translate(-174,10) scale(1,1)"><g><path fill="none" stroke="none"/><text fill="#000000" stroke="none" font-family="Arial" font-size="13px" font-style="normal" font-weight="normal" text-decoration="none" x="477.5" y="175">4 : projects</text></g></g><g transform="translate(-174,10) scale(1,1)"><path fill="none" stroke="#000000" d="M 206 208 L 360 208" stroke-miterlimit="10"/></g><g transform="translate(-174,10) scale(1,1)"><path fill="#000000" stroke="none" d="M 349.83732514237585 212.209517756016 L 360 208 L 349.83732514237585 203.790482243984"/></g><g transform="translate(-174,10) scale(1,1)"><path fill="none" stroke="#000000" d="M 349.83732514237585 212.209517756016 L 360 208 L 349.83732514237585 203.790482243984 L 349.83732514237585 212.209517756016" stroke-miterlimit="10"/></g><g transform="translate(-174,10) scale(1,1)"><g><path fill="none" stroke="none"/><text fill="#000000" stroke="none" font-family="Arial" font-size="13px" font-style="normal" font-weight="normal" text-decoration="none" x="236.5" y="203">5 : selectProject</text></g></g><g transform="translate(-174,10) scale(1,1)"><rect fill="#ffffff" stroke="none" x="360" y="208" width="13" height="104"/></g><g transform="translate(-174,10) scale(1,1)"><path fill="none" stroke="#000000" d="M 360 208 L 373 208 L 373 312 L 360 312 L 360 208 Z Z" stroke-miterlimit="10"/></g><g transform="translate(-174,10) scale(1,1)"><path fill="none" stroke="#000000" d="M 373 232 L 403 232 L 403 252 L 380 252" stroke-miterlimit="10"/></g><g transform="translate(-174,10) scale(1,1)"><path fill="#000000" stroke="none" d="M 390.16267485762415 247.790482243984 L 380 252 L 390.16267485762415 256.209517756016"/></g><g transform="translate(-174,10) scale(1,1)"><path fill="none" stroke="#000000" d="M 390.16267485762415 247.790482243984 L 380 252 L 390.16267485762415 256.209517756016 L 390.16267485762415 247.790482243984" stroke-miterlimit="10"/></g><g transform="translate(-174,10) scale(1,1)"><g><path fill="none" stroke="none"/><text fill="#000000" stroke="none" font-family="Arial" font-size="13px" font-style="normal" font-weight="normal" text-decoration="none" x="368.5" y="246">6 : openProject</text></g></g><g transform="translate(-174,10) scale(1,1)"><rect fill="#ffffff" stroke="none" x="367" y="252" width="13" height="28"/></g><g transform="translate(-174,10) scale(1,1)"><path fill="none" stroke="#000000" d="M 367 252 L 380 252 L 380 280 L 367 280 L 367 252 Z Z" stroke-miterlimit="10"/></g><g transform="translate(-174,10) scale(1,1)"><path fill="none" stroke="#000000" d="M 206 338 L 360 338" stroke-miterlimit="10"/></g><g transform="translate(-174,10) scale(1,1)"><path fill="#000000" stroke="none" d="M 349.83732514237585 342.209517756016 L 360 338 L 349.83732514237585 333.790482243984"/></g><g transform="translate(-174,10) scale(1,1)"><path fill="none" stroke="#000000" d="M 349.83732514237585 342.209517756016 L 360 338 L 349.83732514237585 333.790482243984 L 349.83732514237585 342.209517756016" stroke-miterlimit="10"/></g><g transform="translate(-174,10) scale(1,1)"><g><path fill="none" stroke="none"/><text fill="#000000" stroke="none" font-family="Arial" font-size="13px" font-style="normal" font-weight="normal" text-decoration="none" x="235.5791015625" y="333">7 : addMetadata</text></g></g><g transform="translate(-174,10) scale(1,1)"><rect fill="#ffffff" stroke="none" x="360" y="338" width="13" height="28"/></g><g transform="translate(-174,10) scale(1,1)"><path fill="none" stroke="#000000" d="M 360 338 L 373 338 L 373 366 L 360 366 L 360 338 Z Z" stroke-miterlimit="10"/></g><g transform="translate(-174,10) scale(1,1)"><path fill="none" stroke="#000000" d="M 373 347 L 520 347" stroke-miterlimit="10"/></g><g transform="translate(-174,10) scale(1,1)"><path fill="#000000" stroke="none" d="M 509.83732514237585 351.209517756016 L 520 347 L 509.83732514237585 342.790482243984"/></g><g transform="translate(-174,10) scale(1,1)"><path fill="none" stroke="#000000" d="M 509.83732514237585 351.209517756016 L 520 347 L 509.83732514237585 342.790482243984 L 509.83732514237585 351.209517756016" stroke-miterlimit="10"/></g><g transform="translate(-174,10) scale(1,1)"><g><path fill="none" stroke="none"/><text fill="#000000" stroke="none" font-family="Arial" font-size="13px" font-style="normal" font-weight="normal" text-decoration="none" x="389.5" y="342">8 : updateMetadata</text></g></g><g transform="translate(-174,10) scale(1,1)"><rect fill="#ffffff" stroke="none" x="520" y="347" width="13" height="28"/></g><g transform="translate(-174,10) scale(1,1)"><path fill="none" stroke="#000000" d="M 520 347 L 533 347 L 533 375 L 520 375 L 520 347 Z Z" stroke-miterlimit="10"/></g><g transform="translate(-174,10) scale(1,1)"><path fill="none" stroke="#000000" d="M 533 352 L 653 352" stroke-miterlimit="10"/></g><g transform="translate(-174,10) scale(1,1)"><path fill="#000000" stroke="none" d="M 642.8373251423759 356.209517756016 L 653 352 L 642.8373251423758 347.790482243984"/></g><g transform="translate(-174,10) scale(1,1)"><path fill="none" stroke="#000000" d="M 642.8373251423759 356.209517756016 L 653 352 L 642.8373251423758 347.790482243984 L 642.8373251423759 356.209517756016" stroke-miterlimit="10"/></g><g transform="translate(-174,10) scale(1,1)"><g><path fill="none" stroke="none"/><text fill="#000000" stroke="none" font-family="Arial" font-size="13px" font-style="normal" font-weight="normal" text-decoration="none" x="544.5" y="347">9 : postMetadata</text></g></g><g transform="translate(-174,10) scale(1,1)"><rect fill="#ffffff" stroke="none" x="653" y="352" width="13" height="56"/></g><g transform="translate(-174,10) scale(1,1)"><path fill="none" stroke="#000000" d="M 653 352 L 666 352 L 666 408 L 653 408 L 653 352 Z Z" stroke-miterlimit="10"/></g><g transform="translate(-174,10) scale(1,1)"><path fill="none" stroke="#000000" d="M 198 440 L 360 440" stroke-miterlimit="10"/></g><g transform="translate(-174,10) scale(1,1)"><path fill="#000000" stroke="none" d="M 349.83732514237585 444.209517756016 L 360 440 L 349.83732514237585 435.790482243984"/></g><g transform="translate(-174,10) scale(1,1)"><path fill="none" stroke="#000000" d="M 349.83732514237585 444.209517756016 L 360 440 L 349.83732514237585 435.790482243984 L 349.83732514237585 444.209517756016" stroke-miterlimit="10"/></g><g transform="translate(-174,10) scale(1,1)"><g><path fill="none" stroke="none"/><text fill="#000000" stroke="none" font-family="Arial" font-size="13px" font-style="normal" font-weight="normal" text-decoration="none" x="236.408935546875" y="435">10 : addRating</text></g></g><g transform="translate(-174,10) scale(1,1)"><rect fill="#ffffff" stroke="none" x="360" y="440" width="13" height="28"/></g><g transform="translate(-174,10) scale(1,1)"><path fill="none" stroke="#000000" d="M 360 440 L 373 440 L 373 468 L 360 468 L 360 440 Z Z" stroke-miterlimit="10"/></g><g transform="translate(-174,10) scale(1,1)"><path fill="none" stroke="#000000" d="M 373 449 L 520 449" stroke-miterlimit="10"/></g><g transform="translate(-174,10) scale(1,1)"><path fill="#000000" stroke="none" d="M 509.83732514237585 453.209517756016 L 520 449 L 509.83732514237585 444.790482243984"/></g><g transform="translate(-174,10) scale(1,1)"><path fill="none" stroke="#000000" d="M 509.83732514237585 453.209517756016 L 520 449 L 509.83732514237585 444.790482243984 L 509.83732514237585 453.209517756016" stroke-miterlimit="10"/></g><g transform="translate(-174,10) scale(1,1)"><g><path fill="none" stroke="none"/><text fill="#000000" stroke="none" font-family="Arial" font-size="13px" font-style="normal" font-weight="normal" text-decoration="none" x="395.5" y="444">11 : updateRating</text></g></g><g transform="translate(-174,10) scale(1,1)"><rect fill="#ffffff" stroke="none" x="520" y="449" width="13" height="28"/></g><g transform="translate(-174,10) scale(1,1)"><path fill="none" stroke="#000000" d="M 520 449 L 533 449 L 533 477 L 520 477 L 520 449 Z Z" stroke-miterlimit="10"/></g><g transform="translate(-174,10) scale(1,1)"><path fill="none" stroke="#000000" d="M 533 456 L 653 456" stroke-miterlimit="10"/></g><g transform="translate(-174,10) scale(1,1)"><path fill="#000000" stroke="none" d="M 642.8373251423759 460.209517756016 L 653 456 L 642.8373251423758 451.790482243984"/></g><g transform="translate(-174,10) scale(1,1)"><path fill="none" stroke="#000000" d="M 642.8373251423759 460.209517756016 L 653 456 L 642.8373251423758 451.790482243984 L 642.8373251423759 460.209517756016" stroke-miterlimit="10"/></g><g transform="translate(-174,10) scale(1,1)"><g><path fill="none" stroke="none"/><text fill="#000000" stroke="none" font-family="Arial" font-size="13px" font-style="normal" font-weight="normal" text-decoration="none" x="549.5" y="451">12 : postRating</text></g></g><g transform="translate(-174,10) scale(1,1)"><rect fill="#ffffff" stroke="none" x="653" y="456" width="13" height="28"/></g><g transform="translate(-174,10) scale(1,1)"><path fill="none" stroke="#000000" d="M 653 456 L 666 456 L 666 484 L 653 484 L 653 456 Z Z" stroke-miterlimit="10"/></g><g transform="translate(-174,10) scale(1,1)"><path fill="none" stroke="#000000" d="M 527 520 L 789 520" stroke-miterlimit="10"/></g><g transform="translate(-174,10) scale(1,1)"><path fill="#000000" stroke="none" d="M 778.8373251423759 524.209517756016 L 789 520 L 778.8373251423758 515.790482243984"/></g><g transform="translate(-174,10) scale(1,1)"><path fill="none" stroke="#000000" d="M 778.8373251423759 524.209517756016 L 789 520 L 778.8373251423758 515.790482243984 L 778.8373251423759 524.209517756016" stroke-miterlimit="10"/></g><g transform="translate(-174,10) scale(1,1)"><g><path fill="none" stroke="none"/><text fill="#000000" stroke="none" font-family="Arial" font-size="13px" font-style="normal" font-weight="normal" text-decoration="none" x="605.5" y="515">13 : addToArchive</text></g></g><g transform="translate(-174,10) scale(1,1)"><rect fill="#ffffff" stroke="none" x="789" y="520" width="13" height="28"/></g><g transform="translate(-174,10) scale(1,1)"><path fill="none" stroke="#000000" d="M 789 520 L 802 520 L 802 548 L 789 548 L 789 520 Z Z" stroke-miterlimit="10"/></g><g transform="translate(-174,10) scale(1,1)"><path fill="none" stroke="#000000" d="M 796 560 L 367 560" stroke-miterlimit="10" stroke-dasharray="3"/></g><g transform="translate(-174,10) scale(1,1)"><path fill="none" stroke="#000000" d="M 377.16267485762415 555.790482243984 L 367 560 L 377.16267485762415 564.209517756016" stroke-miterlimit="10"/></g><g transform="translate(-174,10) scale(1,1)"><g><path fill="none" stroke="none"/><text fill="#000000" stroke="none" font-family="Arial" font-size="13px" font-style="normal" font-weight="normal" text-decoration="none" x="542.5" y="575">14 : archived</text></g></g></g></svg>