<svg version="1.1" xmlns="http://www.w3.org/2000/svg" xmlns:xlink="http://www.w3.org/1999/xlink" width="711" height="708"><defs/><g><text fill="#eeeeee" stroke="none" font-family="Arial" font-size="24px" font-style="normal" font-weight="normal" text-decoration="none" x="0" y="0">UNREGISTERED</text><text fill="#eeeeee" stroke="none" font-family="Arial" font-size="24px" font-style="normal" font-weight="normal" text-decoration="none" x="0" y="30">UNREGISTERED</text><text fill="#eeeeee" stroke="none" font-family="Arial" font-size="24px" font-style="normal" font-weight="normal" text-decoration="none" x="0" y="60">UNREGISTERED</text><text fill="#eeeeee" stroke="none" font-family="Arial" font-size="24px" font-style="normal" font-weight="normal" text-decoration="none" x="0" y="90">UNREGISTERED</text><text fill="#eeeeee" stroke="none" font-family="Arial" font-size="24px" font-style="normal" font-weight="normal" text-decoration="none" x="0" y="120">UNREGISTERED</text><text fill="#eeeeee" stroke="none" font-family="Arial" font-size="24px" font-style="normal" font-weight="normal" text-decoration="none" x="0" y="150">UNREGISTERED</text><text fill="#eeeeee" stroke="none" font-family="Arial" font-size="24px" font-style="normal" font-weight="normal" text-decoration="none" x="0" y="180">UNREGISTERED</text><text fill="#eeeeee" stroke="none" font-family="Arial" font-size="24px" font-style="normal" font-weight="normal" text-decoration="none" x="0" y="210">UNREGISTERED</text><text fill="#eeeeee" stroke="none" font-family="Arial" font-size="24px" font-style="normal" font-weight="normal" text-decoration="none" x="0" y="240">UNREGISTERED</text><text fill="#eeeeee" stroke="none" font-family="Arial" font-size="24px" font-style="normal" font-weight="normal" text-decoration="none" x="0" y="270">UNREGISTERED</text><text fill="#eeeeee" stroke="none" font-family="Arial" font-size="24px" font-style="normal" font-weight="normal" text-decoration="none" x="0" y="300">UNREGISTERED</text><text fill="#eeeeee" stroke="none" font-family="Arial" font-size="24px" font-style="normal" font-weight="normal" text-decoration="none" x="0" y="330">UNREGISTERED</text><text fill="#eeeeee" stroke="none" font-family="Arial" font-size="24px" font-style="normal" font-weight="normal" text-decoration="none" x="0" y="360">UNREGISTERED</text><text fill="#eeeeee" stroke="none" font-family="Arial" font-size="24px" font-style="normal" font-weight="normal" text-decoration="none" x="0" y="390">UNREGISTERED</text><text fill="#eeeeee" stroke="none" font-family="Arial" font-size="24px" font-style="normal" font-weight="normal" text-decoration="none" x="0" y="420">UNREGISTERED</text><text fill="#eeeeee" stroke="none" font-family="Arial" font-size="24px" font-style="normal" font-weight="normal" text-decoration="none" x="0" y="450">UNREGISTERED</text><text fill="#eeeeee" stroke="none" font-family="Arial" font-size="24px" font-style="normal" font-weight="normal" text-decoration="none" x="0" y="480">UNREGISTERED</text><text fill="#eeeeee" stroke="none" font-family="Arial" font-size="24px" font-style="normal" font-weight="normal" text-decoration="none" x="0" y="510">UNREGISTERED</text><text fill="#eeeeee" stroke="none" font-family="Arial" font-size="24px" font-style="normal" font-weight="normal" text-decoration="none" x="0" y="540">UNREGISTERED</text><text fill="#eeeeee" stroke="none" font-family="Arial" font-size="24px" font-style="normal" font-weight="normal" text-decoration="none" x="0" y="570">UNREGISTERED</text><text fill="#eeeeee" stroke="none" font-family="Arial" font-size="24px" font-style="normal" font-weight="normal" text-decoration="none" x="0" y="600">UNREGISTERED</text><text fill="#eeeeee" stroke="none" font-family="Arial" font-size="24px" font-style="normal" font-weight="normal" text-decoration="none" x="0" y="630">UNREGISTERED</text><text fill="#eeeeee" stroke="none" font-family="Arial" font-size="24px" font-style="normal" font-weight="normal" text-decoration="none" x="0" y="660">UNREGISTERED</text><text fill="#eeeeee" stroke="none" font-family="Arial" font-size="24px" font-style="normal" font-weight="normal" text-decoration="none" x="0" y="690">UNREGISTERED</text><text fill="#eeeeee" stroke="none" font-family="Arial" font-size="24px" font-style="normal" font-weight="normal" text-decoration="none" x="200" y="0">UNREGISTERED</text><text fill="#eeeeee" stroke="none" font-family="Arial" font-size="24px" font-style="normal" font-weight="normal" text-decoration="none" x="200" y="30">UNREGISTERED</text><text fill="#eeeeee" stroke="none" font-family="Arial" font-size="24px" font-style="normal" font-weight="normal" text-decoration="none" x="200" y="60">UNREGISTERED</text><text fill="#eeeeee" stroke="none" font-family="Arial" font-size="24px" font-style="normal" font-weight="normal" text-decoration="none" x="200" y="90">UNREGISTERED</text><text fill="#eeeeee" stroke="none" font-family="Arial" font-size="24px" font-style="normal" font-weight="normal" text-decoration="none" x="200" y="120">UNREGISTERED</text><text fill="#eeeeee" stroke="none" font-family="Arial" font-size="24px" font-style="normal" font-weight="normal" text-decoration="none" x="200" y="150">UNREGISTERED</text><text fill="#eeeeee" stroke="none" font-family="Arial" font-size="24px" font-style="normal" font-weight="normal" text-decoration="none" x="200" y="180">UNREGISTERED</text><text fill="#eeeeee" stroke="none" font-family="Arial" font-size="24px" font-style="normal" font-weight="normal" text-decoration="none" x="200" y="210">UNREGISTERED</text><text fill="#eeeeee" stroke="none" font-family="Arial" font-size="24px" font-style="normal" font-weight="normal" text-decoration="none" x="200" y="240">UNREGISTERED</text><text fill="#eeeeee" stroke="none" font-family="Arial" font-size="24px" font-style="normal" font-weight="normal" text-decoration="none" x="200" y="270">UNREGISTERED</text><text fill="#eeeeee" stroke="none" font-family="Arial" font-size="24px" font-style="normal" font-weight="normal" text-decoration="none" x="200" y="300">UNREGISTERED</text><text fill="#eeeeee" stroke="none" font-family="Arial" font-size="24px" font-style="normal" font-weight="normal" text-decoration="none" x="200" y="330">UNREGISTERED</text><text fill="#eeeeee" stroke="none" font-family="Arial" font-size="24px" font-style="normal" font-weight="normal" text-decoration="none" x="200" y="360">UNREGISTERED</text><text fill="#eeeeee" stroke="none" font-family="Arial" font-size="24px" font-style="normal" font-weight="normal" text-decoration="none" x="200" y="390">UNREGISTERED</text><text fill="#eeeeee" stroke="none" font-family="Arial" font-size="24px" font-style="normal" font-weight="normal" text-decoration="none" x="200" y="420">UNREGISTERED</text><text fill="#eeeeee" stroke="none" font-family="Arial" font-size="24px" font-style="normal" font-weight="normal" text-decoration="none" x="200" y="450">UNREGISTERED</text><text fill="#eeeeee" stroke="none" font-family="Arial" font-size="24px" font-style="normal" font-weight="normal" text-decoration="none" x="200" y="480">UNREGISTERED</text><text fill="#eeeeee" stroke="none" font-family="Arial" font-size="24px" font-style="normal" font-weight="normal" text-decoration="none" x="200" y="510">UNREGISTERED</text><text fill="#eeeeee" stroke="none" font-family="Arial" font-size="24px" font-style="normal" font-weight="normal" text-decoration="none" x="200" y="540">UNREGISTERED</text><text fill="#eeeeee" stroke="none" font-family="Arial" font-size="24px" font-style="normal" font-weight="normal" text-decoration="none" x="200" y="570">UNREGISTERED</text><text fill="#eeeeee" stroke="none" font-family="Arial" font-size="24px" font-style="normal" font-weight="normal" text-decoration="none" x="200" y="600">UNREGISTERED</text><text fill="#eeeeee" stroke="none" font-family="Arial" font-size="24px" font-style="normal" font-weight="normal" text-decoration="none" x="200" y="630">UNREGISTERED</text><text fill="#eeeeee" stroke="none" font-family="Arial" font-size="24px" font-style="normal" font-weight="normal" text-decoration="none" x="200" y="660">UNREGISTERED</text><text fill="#eeeeee" stroke="none" font-family="Arial" font-size="24px" font-style="normal" font-weight="normal" text-decoration="none" x="200" y="690">UNREGISTERED</text><text fill="#eeeeee" stroke="none" font-family="Arial" font-size="24px" font-style="normal" font-weight="normal" text-decoration="none" x="400" y="0">UNREGISTERED</text><text fill="#eeeeee" stroke="none" font-family="Arial" font-size="24px" font-style="normal" font-weight="normal" text-decoration="none" x="400" y="30">UNREGISTERED</text><text fill="#eeeeee" stroke="none" font-family="Arial" font-size="24px" font-style="normal" font-weight="normal" text-decoration="none" x="400" y="60">UNREGISTERED</text><text fill="#eeeeee" stroke="none" font-family="Arial" font-size="24px" font-style="normal" font-weight="normal" text-decoration="none" x="400" y="90">UNREGISTERED</text><text fill="#eeeeee" stroke="none" font-family="Arial" font-size="24px" font-style="normal" font-weight="normal" text-decoration="none" x="400" y="120">UNREGISTERED</text><text fill="#eeeeee" stroke="none" font-family="Arial" font-size="24px" font-style="normal" font-weight="normal" text-decoration="none" x="400" y="150">UNREGISTERED</text><text fill="#eeeeee" stroke="none" font-family="Arial" font-size="24px" font-style="normal" font-weight="normal" text-decoration="none" x="400" y="180">UNREGISTERED</text><text fill="#eeeeee" stroke="none" font-family="Arial" font-size="24px" font-style="normal" font-weight="normal" text-decoration="none" x="400" y="210">UNREGISTERED</text><text fill="#eeeeee" stroke="none" font-family="Arial" font-size="24px" font-style="normal" font-weight="normal" text-decoration="none" x="400" y="240">UNREGISTERED</text><text fill="#eeeeee" stroke="none" font-family="Arial" font-size="24px" font-style="normal" font-weight="normal" text-decoration="none" x="400" y="270">UNREGISTERED</text><text fill="#eeeeee" stroke="none" font-family="Arial" font-size="24px" font-style="normal" font-weight="normal" text-decoration="none" x="400" y="300">UNREGISTERED</text><text fill="#eeeeee" stroke="none" font-family="Arial" font-size="24px" font-style="normal" font-weight="normal" text-decoration="none" x="400" y="330">UNREGISTERED</text><text fill="#eeeeee" stroke="none" font-family="Arial" font-size="24px" font-style="normal" font-weight="normal" text-decoration="none" x="400" y="360">UNREGISTERED</text><text fill="#eeeeee" stroke="none" font-family="Arial" font-size="24px" font-style="normal" font-weight="normal" text-decoration="none" x="400" y="390">UNREGISTERED</text><text fill="#eeeeee" stroke="none" font-family="Arial" font-size="24px" font-style="normal" font-weight="normal" text-decoration="none" x="400" y="420">UNREGISTERED</text><text fill="#eeeeee" stroke="none" font-family="Arial" font-size="24px" font-style="normal" font-weight="normal" text-decoration="none" x="400" y="450">UNREGISTERED</text><text fill="#eeeeee" stroke="none" font-family="Arial" font-size="24px" font-style="normal" font-weight="normal" text-decoration="none" x="400" y="480">UNREGISTERED</text><text fill="#eeeeee" stroke="none" font-family="Arial" font-size="24px" font-style="normal" font-weight="normal" text-decoration="none" x="400" y="510">UNREGISTERED</text><text fill="#eeeeee" stroke="none" font-family="Arial" font-size="24px" font-style="normal" font-weight="normal" text-decoration="none" x="400" y="540">UNREGISTERED</text><text fill="#eeeeee" stroke="none" font-family="Arial" font-size="24px" font-style="normal" font-weight="normal" text-decoration="none" x="400" y="570">UNREGISTERED</text><text fill="#eeeeee" stroke="none" font-family="Arial" font-size="24px" font-style="normal" font-weight="normal" text-decoration="none" x="400" y="600">UNREGISTERED</text><text fill="#eeeeee" stroke="none" font-family="Arial" font-size="24px" font-style="normal" font-weight="normal" text-decoration="none" x="400" y="630">UNREGISTERED</text><text fill="#eeeeee" stroke="none" font-family="Arial" font-size="24px" font-style="normal" font-weight="normal" text-decoration="none" x="400" y="660">UNREGISTERED</text><text fill="#eeeeee" stroke="none" font-family="Arial" font-size="24px" font-style="normal" font-weight="normal" text-decoration="none" x="400" y="690">UNREGISTERED</text><text fill="#eeeeee" stroke="none" font-family="Arial" font-size="24px" font-style="normal" font-weight="normal" text-decoration="none" x="600" y="0">UNREGISTERED</text><text fill="#eeeeee" stroke="none" font-family="Arial" font-size="24px" font-style="normal" font-weight="normal" text-decoration="none" x="600" y="30">UNREGISTERED</text><text fill="#eeeeee" stroke="none" font-family="Arial" font-size="24px" font-style="normal" font-weight="normal" text-decoration="none" x="600" y="60">UNREGISTERED</text><text fill="#eeeeee" stroke="none" font-family="Arial" font-size="24px" font-style="normal" font-weight="normal" text-decoration="none" x="600" y="90">UNREGISTERED</text><text fill="#eeeeee" stroke="none" font-family="Arial" font-size="24px" font-style="normal" font-weight="normal" text-decoration="none" x="600" y="120">UNREGISTERED</text><text fill="#eeeeee" stroke="none" font-family="Arial" font-size="24px" font-style="normal" font-weight="normal" text-decoration="none" x="600" y="150">UNREGISTERED</text><text fill="#eeeeee" stroke="none" font-family="Arial" font-size="24px" font-style="normal" font-weight="normal" text-decoration="none" x="600" y="180">UNREGISTERED</text><text fill="#eeeeee" stroke="none" font-family="Arial" font-size="24px" font-style="normal" font-weight="normal" text-decoration="none" x="600" y="210">UNREGISTERED</text><text fill="#eeeeee" stroke="none" font-family="Arial" font-size="24px" font-style="normal" font-weight="normal" text-decoration="none" x="600" y="240">UNREGISTERED</text><text fill="#eeeeee" stroke="none" font-family="Arial" font-size="24px" font-style="normal" font-weight="normal" text-decoration="none" x="600" y="270">UNREGISTERED</text><text fill="#eeeeee" stroke="none" font-family="Arial" font-size="24px" font-style="normal" font-weight="normal" text-decoration="none" x="600" y="300">UNREGISTERED</text><text fill="#eeeeee" stroke="none" font-family="Arial" font-size="24px" font-style="normal" font-weight="normal" text-decoration="none" x="600" y="330">UNREGISTERED</text><text fill="#eeeeee" stroke="none" font-family="Arial" font-size="24px" font-style="normal" font-weight="normal" text-decoration="none" x="600" y="360">UNREGISTERED</text><text fill="#eeeeee" stroke="none" font-family="Arial" font-size="24px" font-style="normal" font-weight="normal" text-decoration="none" x="600" y="390">UNREGISTERED</text><text fill="#eeeeee" stroke="none" font-family="Arial" font-size="24px" font-style="normal" font-weight="normal" text-decoration="none" x="600" y="420">UNREGISTERED</text><text fill="#eeeeee" stroke="none" font-family="Arial" font-size="24px" font-style="normal" font-weight="normal" text-decoration="none" x="600" y="450">UNREGISTERED</text><text fill="#eeeeee" stroke="none" font-family="Arial" font-size="24px" font-style="normal" font-weight="normal" text-decoration="none" x="600" y="480">UNREGISTERED</text><text fill="#eeeeee" stroke="none" font-family="Arial" font-size="24px" font-style="normal" font-weight="normal" text-decoration="none" x="600" y="510">UNREGISTERED</text><text fill="#eeeeee" stroke="none" font-family="Arial" font-size="24px" font-style="normal" font-weight="normal" text-decoration="none" x="600" y="540">UNREGISTERED</text><text fill="#eeeeee" stroke="none" font-family="Arial" font-size="24px" font-style="normal" font-weight="normal" text-decoration="none" x="600" y="570">UNREGISTERED</text><text fill="#eeeeee" stroke="none" font-family="Arial" font-size="24px" font-style="normal" font-weight="normal" text-decoration="none" x="600" y="600">UNREGISTERED</text><text fill="#eeeeee" stroke="none" font-family="Arial" font-size="24px" font-style="normal" font-weight="normal" text-decoration="none" x="600" y="630">UNREGISTERED</text><text fill="#eeeeee" stroke="none" font-family="Arial" font-size="24px" font-style="normal" font-weight="normal" text-decoration="none" x="600" y="660">UNREGISTERED</text><text fill="#eeeeee" stroke="none" font-family="Arial" font-size="24px" font-style="normal" font-weight="normal" text-decoration="none" x="600" y="690">UNREGISTERED</text><g transform="translate(2,2) scale(1,1)"><path fill="none" stroke="#000000" d="M 8 8 L 699 8 L 699 696 L 8 696 L 8 8" stroke-miterlimit="10"/></g><g transform="translate(2,2) scale(1,1)"><path fill="#ffffff" stroke="none" d="M 8 8 L 8 30 L 109.99169921875 30 L 120.99169921875 19 L 120.99169921875 8 L 8 8"/></g><g transform="translate(2,2) scale(1,1)"><path fill="none" stroke="#000000" d="M 8 8 L 8 30 L 109.99169921875 30 L 120.99169921875 19 L 120.99169921875 8 L 8 8 L 8 8" stroke-miterlimit="10"/></g><g transform="translate(2,2) scale(1,1)"><g><path fill="none" stroke="none"/><text fill="#000000" stroke="none" font-family="Arial" font-size="13px" font-style="normal" font-weight="normal" text-decoration="none" x="32.72998046875" y="24">Update Task</text></g></g><g transform="translate(2,2) scale(1,1)"><g><path fill="none" stroke="none"/><text fill="#000000" stroke="none" font-family="Arial" font-size="13px" font-style="normal" font-weight="bold" text-decoration="none" x="12.279541015625" y="24">sd</text></g></g><g transform="translate(2,2) scale(1,1)"><rect fill="#C0C0C0" stroke="none" x="247" y="47" width="71.736328125" height="39" opacity="0.2"/></g><g transform="translate(2,2) scale(1,1)"><rect fill="#ffffff" stroke="none" x="240" y="40" width="71.736328125" height="39"/></g><g transform="translate(2,2) scale(1,1)"><path fill="none" stroke="#000000" d="M 240 40 L 311.736328125 40 L 311.736328125 79 L 240 79 L 240 40 Z Z" stroke-miterlimit="10"/></g><g transform="translate(2,2) scale(1,1)"><g><path fill="none" stroke="none"/><text fill="#000000" stroke="none" font-family="Arial" font-size="13px" font-style="normal" font-weight="bold" text-decoration="none" x="255.03515625" y="58">TaskUI</text></g></g><g transform="translate(2,2) scale(1,1)"><path fill="none" stroke="#000000" d="M 276.5 80 L 276.5 688" stroke-miterlimit="10" stroke-dasharray="3"/></g><g transform="translate(2,2) scale(1,1)"><rect fill="#C0C0C0" stroke="none" x="391" y="47" width="109.77783203125" height="39" opacity="0.2"/></g><g transform="translate(2,2) scale(1,1)"><rect fill="#ffffff" stroke="none" x="384" y="40" width="109.77783203125" height="39"/></g><g transform="translate(2,2) scale(1,1)"><path fill="none" stroke="#000000" d="M 384 40 L 493.77783203125 40 L 493.77783203125 79 L 384 79 L 384 40 Z Z" stroke-miterlimit="10"/></g><g transform="translate(2,2) scale(1,1)"><g><path fill="none" stroke="none"/><text fill="#000000" stroke="none" font-family="Arial" font-size="13px" font-style="normal" font-weight="bold" text-decoration="none" x="393.5" y="58">TaskController</text></g></g><g transform="translate(2,2) scale(1,1)"><path fill="none" stroke="#000000" d="M 439.5 80 L 439.5 688" stroke-miterlimit="10" stroke-dasharray="3"/></g><g transform="translate(2,2) scale(1,1)"><rect fill="#C0C0C0" stroke="none" x="559" y="47" width="71.736328125" height="39" opacity="0.2"/></g><g transform="translate(2,2) scale(1,1)"><rect fill="#ffffff" stroke="none" x="552" y="40" width="71.736328125" height="39"/></g><g transform="translate(2,2) scale(1,1)"><path fill="none" stroke="#000000" d="M 552 40 L 623.736328125 40 L 623.736328125 79 L 552 79 L 552 40 Z Z" stroke-miterlimit="10"/></g><g transform="translate(2,2) scale(1,1)"><g><path fill="none" stroke="none"/><text fill="#000000" stroke="none" font-family="Arial" font-size="13px" font-style="normal" font-weight="bold" text-decoration="none" x="573.53515625" y="58">Task</text></g></g><g transform="translate(2,2) scale(1,1)"><path fill="none" stroke="#000000" d="M 588.5 80 L 588.5 688" stroke-miterlimit="10" stroke-dasharray="3"/></g><g transform="translate(2,2) scale(1,1)"><rect fill="#ffffff" stroke="none" x="16" y="102.5" width="14" height="14"/></g><g transform="translate(2,2) scale(1,1)"><path fill="none" stroke="#000000" d="M 16 102.5 L 30 102.5 L 30 116.5 L 16 116.5 L 16 102.5 Z Z" stroke-miterlimit="10"/></g><g transform="translate(2,2) scale(1,1)"><rect fill="#ffffff" stroke="none" x="16" y="176.5" width="14" height="14"/></g><g transform="translate(2,2) scale(1,1)"><path fill="none" stroke="#000000" d="M 16 176.5 L 30 176.5 L 30 190.5 L 16 190.5 L 16 176.5 Z Z" stroke-miterlimit="10"/></g><g transform="translate(2,2) scale(1,1)"><rect fill="#ffffff" stroke="none" x="16" y="352.5" width="14" height="14"/></g><g transform="translate(2,2) scale(1,1)"><path fill="none" stroke="#000000" d="M 16 352.5 L 30 352.5 L 30 366.5 L 16 366.5 L 16 352.5 Z Z" stroke-miterlimit="10"/></g><g transform="translate(2,2) scale(1,1)"><rect fill="#ffffff" stroke="none" x="16" y="448.5" width="14" height="14"/></g><g transform="translate(2,2) scale(1,1)"><path fill="none" stroke="#000000" d="M 16 448.5 L 30 448.5 L 30 462.5 L 16 462.5 L 16 448.5 Z Z" stroke-miterlimit="10"/></g><g transform="translate(2,2) scale(1,1)"><rect fill="#ffffff" stroke="none" x="16" y="608.5" width="14" height="14"/></g><g transform="translate(2,2) scale(1,1)"><path fill="none" stroke="#000000" d="M 16 608.5 L 30 608.5 L 30 622.5 L 16 622.5 L 16 608.5 Z Z" stroke-miterlimit="10"/></g><g transform="translate(2,2) scale(1,1)"><path fill="none" stroke="#000000" d="M 30 110 L 269 110" stroke-miterlimit="10"/></g><g transform="translate(2,2) scale(1,1)"><path fill="#000000" stroke="none" d="M 258.83732514237585 114.20951775601598 L 269 110 L 258.83732514237585 105.79048224398402"/></g><g transform="translate(2,2) scale(1,1)"><path fill="none" stroke="#000000" d="M 258.83732514237585 114.20951775601598 L 269 110 L 258.83732514237585 105.79048224398402 L 258.83732514237585 114.20951775601598" stroke-miterlimit="10"/></g><g transform="translate(2,2) scale(1,1)"><g><path fill="none" stroke="none"/><text fill="#000000" stroke="none" font-family="Arial" font-size="13px" font-style="normal" font-weight="normal" text-decoration="none" x="108.5" y="105">1 : showTasks</text></g></g><g transform="translate(2,2) scale(1,1)"><rect fill="#ffffff" stroke="none" x="269" y="110" width="13" height="58"/></g><g transform="translate(2,2) scale(1,1)"><path fill="none" stroke="#000000" d="M 269 110 L 282 110 L 282 168 L 269 168 L 269 110 Z Z" stroke-miterlimit="10"/></g><g transform="translate(2,2) scale(1,1)"><path fill="none" stroke="#000000" d="M 282 122 L 432 122" stroke-miterlimit="10"/></g><g transform="translate(2,2) scale(1,1)"><path fill="#000000" stroke="none" d="M 421.83732514237585 126.20951775601598 L 432 122 L 421.83732514237585 117.79048224398402"/></g><g transform="translate(2,2) scale(1,1)"><path fill="none" stroke="#000000" d="M 421.83732514237585 126.20951775601598 L 432 122 L 421.83732514237585 117.79048224398402 L 421.83732514237585 126.20951775601598" stroke-miterlimit="10"/></g><g transform="translate(2,2) scale(1,1)"><g><path fill="none" stroke="none"/><text fill="#000000" stroke="none" font-family="Arial" font-size="13px" font-style="normal" font-weight="normal" text-decoration="none" x="321.838623046875" y="117">2 : getTasks</text></g></g><g transform="translate(2,2) scale(1,1)"><rect fill="#ffffff" stroke="none" x="432" y="122" width="13" height="28"/></g><g transform="translate(2,2) scale(1,1)"><path fill="none" stroke="#000000" d="M 432 122 L 445 122 L 445 150 L 432 150 L 432 122 Z Z" stroke-miterlimit="10"/></g><g transform="translate(2,2) scale(1,1)"><path fill="none" stroke="#000000" d="M 445 136 L 581 136" stroke-miterlimit="10"/></g><g transform="translate(2,2) scale(1,1)"><path fill="#000000" stroke="none" d="M 570.8373251423759 140.209517756016 L 581 136 L 570.8373251423758 131.790482243984"/></g><g transform="translate(2,2) scale(1,1)"><path fill="none" stroke="#000000" d="M 570.8373251423759 140.209517756016 L 581 136 L 570.8373251423758 131.790482243984 L 570.8373251423759 140.209517756016" stroke-miterlimit="10"/></g><g transform="translate(2,2) scale(1,1)"><g><path fill="none" stroke="none"/><text fill="#000000" stroke="none" font-family="Arial" font-size="13px" font-style="normal" font-weight="normal" text-decoration="none" x="465.5" y="131">3 : retreiveTasks</text></g></g><g transform="translate(2,2) scale(1,1)"><rect fill="#ffffff" stroke="none" x="581" y="136" width="13" height="28"/></g><g transform="translate(2,2) scale(1,1)"><path fill="none" stroke="#000000" d="M 581 136 L 594 136 L 594 164 L 581 164 L 581 136 Z Z" stroke-miterlimit="10"/></g><g transform="translate(2,2) scale(1,1)"><path fill="none" stroke="#000000" d="M 581 162 L 282 162" stroke-miterlimit="10" stroke-dasharray="3"/></g><g transform="translate(2,2) scale(1,1)"><path fill="none" stroke="#000000" d="M 292.16267485762415 157.790482243984 L 282 162 L 292.16267485762415 166.209517756016" stroke-miterlimit="10"/></g><g transform="translate(2,2) scale(1,1)"><g><path fill="none" stroke="none"/><text fill="#000000" stroke="none" font-family="Arial" font-size="13px" font-style="normal" font-weight="normal" text-decoration="none" x="353.5" y="179">4 : tasks</text></g></g><g transform="translate(2,2) scale(1,1)"><path fill="none" stroke="#000000" d="M 30 184 L 269 184" stroke-miterlimit="10"/></g><g transform="translate(2,2) scale(1,1)"><path fill="#000000" stroke="none" d="M 258.83732514237585 188.209517756016 L 269 184 L 258.83732514237585 179.790482243984"/></g><g transform="translate(2,2) scale(1,1)"><path fill="none" stroke="#000000" d="M 258.83732514237585 188.209517756016 L 269 184 L 258.83732514237585 179.790482243984 L 258.83732514237585 188.209517756016" stroke-miterlimit="10"/></g><g transform="translate(2,2) scale(1,1)"><g><path fill="none" stroke="none"/><text fill="#000000" stroke="none" font-family="Arial" font-size="13px" font-style="normal" font-weight="normal" text-decoration="none" x="109.47998046875" y="179">5 : selectTask</text></g></g><g transform="translate(2,2) scale(1,1)"><rect fill="#ffffff" stroke="none" x="269" y="184" width="13" height="75"/></g><g transform="translate(2,2) scale(1,1)"><path fill="none" stroke="#000000" d="M 269 184 L 282 184 L 282 259 L 269 259 L 269 184 Z Z" stroke-miterlimit="10"/></g><g transform="translate(2,2) scale(1,1)"><path fill="none" stroke="#000000" d="M 282 192 L 312 192 L 312 212 L 289 212" stroke-miterlimit="10"/></g><g transform="translate(2,2) scale(1,1)"><path fill="#000000" stroke="none" d="M 299.16267485762415 207.790482243984 L 289 212 L 299.16267485762415 216.209517756016"/></g><g transform="translate(2,2) scale(1,1)"><path fill="none" stroke="#000000" d="M 299.16267485762415 207.790482243984 L 289 212 L 299.16267485762415 216.209517756016 L 299.16267485762415 207.790482243984" stroke-miterlimit="10"/></g><g transform="translate(2,2) scale(1,1)"><g><path fill="none" stroke="none"/><text fill="#000000" stroke="none" font-family="Arial" font-size="13px" font-style="normal" font-weight="normal" text-decoration="none" x="295.66455078125" y="227">6 : openTask</text></g></g><g transform="translate(2,2) scale(1,1)"><rect fill="#ffffff" stroke="none" x="276" y="212" width="13" height="28"/></g><g transform="translate(2,2) scale(1,1)"><path fill="none" stroke="#000000" d="M 276 212 L 289 212 L 289 240 L 276 240 L 276 212 Z Z" stroke-miterlimit="10"/></g><g transform="translate(2,2) scale(1,1)"><path fill="none" stroke="#000000" d="M 30 360 L 269 360" stroke-miterlimit="10"/></g><g transform="translate(2,2) scale(1,1)"><path fill="#000000" stroke="none" d="M 258.83732514237585 364.209517756016 L 269 360 L 258.83732514237585 355.790482243984"/></g><g transform="translate(2,2) scale(1,1)"><path fill="none" stroke="#000000" d="M 258.83732514237585 364.209517756016 L 269 360 L 258.83732514237585 355.790482243984 L 258.83732514237585 364.209517756016" stroke-miterlimit="10"/></g><g transform="translate(2,2) scale(1,1)"><g><path fill="none" stroke="none"/><text fill="#000000" stroke="none" font-family="Arial" font-size="13px" font-style="normal" font-weight="normal" text-decoration="none" x="81.5" y="355">7 : showUploadForTask</text></g></g><g transform="translate(2,2) scale(1,1)"><rect fill="#ffffff" stroke="none" x="269" y="360" width="13" height="160"/></g><g transform="translate(2,2) scale(1,1)"><path fill="none" stroke="#000000" d="M 269 360 L 282 360 L 282 520 L 269 520 L 269 360 Z Z" stroke-miterlimit="10"/></g><g transform="translate(2,2) scale(1,1)"><path fill="none" stroke="#000000" d="M 282 368 L 312 368 L 312 388 L 289 388" stroke-miterlimit="10"/></g><g transform="translate(2,2) scale(1,1)"><path fill="#000000" stroke="none" d="M 299.16267485762415 383.790482243984 L 289 388 L 299.16267485762415 392.209517756016"/></g><g transform="translate(2,2) scale(1,1)"><path fill="none" stroke="#000000" d="M 299.16267485762415 383.790482243984 L 289 388 L 299.16267485762415 392.209517756016 L 299.16267485762415 383.790482243984" stroke-miterlimit="10"/></g><g transform="translate(2,2) scale(1,1)"><g><path fill="none" stroke="none"/><text fill="#000000" stroke="none" font-family="Arial" font-size="13px" font-style="normal" font-weight="normal" text-decoration="none" x="286.5" y="363">8 : displayUploadForm</text></g></g><g transform="translate(2,2) scale(1,1)"><rect fill="#ffffff" stroke="none" x="276" y="388" width="13" height="28"/></g><g transform="translate(2,2) scale(1,1)"><path fill="none" stroke="#000000" d="M 276 388 L 289 388 L 289 416 L 276 416 L 276 388 Z Z" stroke-miterlimit="10"/></g><g transform="translate(2,2) scale(1,1)"><path fill="none" stroke="#000000" d="M 30 456 L 276 456" stroke-miterlimit="10"/></g><g transform="translate(2,2) scale(1,1)"><path fill="#000000" stroke="none" d="M 265.83732514237585 460.209517756016 L 276 456 L 265.83732514237585 451.790482243984"/></g><g transform="translate(2,2) scale(1,1)"><path fill="none" stroke="#000000" d="M 265.83732514237585 460.209517756016 L 276 456 L 265.83732514237585 451.790482243984 L 265.83732514237585 460.209517756016" stroke-miterlimit="10"/></g><g transform="translate(2,2) scale(1,1)"><g><path fill="none" stroke="none"/><text fill="#000000" stroke="none" font-family="Arial" font-size="13px" font-style="normal" font-weight="normal" text-decoration="none" x="102.114990234375" y="451">9 : uploadContent</text></g></g><g transform="translate(2,2) scale(1,1)"><rect fill="#ffffff" stroke="none" x="276" y="456" width="13" height="28"/></g><g transform="translate(2,2) scale(1,1)"><path fill="none" stroke="#000000" d="M 276 456 L 289 456 L 289 484 L 276 484 L 276 456 Z Z" stroke-miterlimit="10"/></g><g transform="translate(2,2) scale(1,1)"><path fill="none" stroke="#000000" d="M 289 469 L 432 469" stroke-miterlimit="10"/></g><g transform="translate(2,2) scale(1,1)"><path fill="#000000" stroke="none" d="M 421.83732514237585 473.209517756016 L 432 469 L 421.83732514237585 464.790482243984"/></g><g transform="translate(2,2) scale(1,1)"><path fill="none" stroke="#000000" d="M 421.83732514237585 473.209517756016 L 432 469 L 421.83732514237585 464.790482243984 L 421.83732514237585 473.209517756016" stroke-miterlimit="10"/></g><g transform="translate(2,2) scale(1,1)"><g><path fill="none" stroke="none"/><text fill="#000000" stroke="none" font-family="Arial" font-size="13px" font-style="normal" font-weight="normal" text-decoration="none" x="304.5" y="464">10 : updateContent</text></g></g><g transform="translate(2,2) scale(1,1)"><rect fill="#ffffff" stroke="none" x="432" y="469" width="13" height="28"/></g><g transform="translate(2,2) scale(1,1)"><path fill="none" stroke="#000000" d="M 432 469 L 445 469 L 445 497 L 432 497 L 432 469 Z Z" stroke-miterlimit="10"/></g><g transform="translate(2,2) scale(1,1)"><path fill="none" stroke="#000000" d="M 445 480 L 581 480" stroke-miterlimit="10"/></g><g transform="translate(2,2) scale(1,1)"><path fill="#000000" stroke="none" d="M 570.8373251423759 484.209517756016 L 581 480 L 570.8373251423758 475.790482243984"/></g><g transform="translate(2,2) scale(1,1)"><path fill="none" stroke="#000000" d="M 570.8373251423759 484.209517756016 L 581 480 L 570.8373251423758 475.790482243984 L 570.8373251423759 484.209517756016" stroke-miterlimit="10"/></g><g transform="translate(2,2) scale(1,1)"><g><path fill="none" stroke="none"/><text fill="#000000" stroke="none" font-family="Arial" font-size="13px" font-style="normal" font-weight="normal" text-decoration="none" x="465.982421875" y="475">11 : postContent</text></g></g><g transform="translate(2,2) scale(1,1)"><rect fill="#ffffff" stroke="none" x="581" y="480" width="13" height="28"/></g><g transform="translate(2,2) scale(1,1)"><path fill="none" stroke="#000000" d="M 581 480 L 594 480 L 594 508 L 581 508 L 581 480 Z Z" stroke-miterlimit="10"/></g><g transform="translate(2,2) scale(1,1)"><path fill="none" stroke="#000000" d="M 30 616 L 269 616" stroke-miterlimit="10"/></g><g transform="translate(2,2) scale(1,1)"><path fill="#000000" stroke="none" d="M 258.83732514237585 620.209517756016 L 269 616 L 258.83732514237585 611.790482243984"/></g><g transform="translate(2,2) scale(1,1)"><path fill="none" stroke="#000000" d="M 258.83732514237585 620.209517756016 L 269 616 L 258.83732514237585 611.790482243984 L 258.83732514237585 620.209517756016" stroke-miterlimit="10"/></g><g transform="translate(2,2) scale(1,1)"><g><path fill="none" stroke="none"/><text fill="#000000" stroke="none" font-family="Arial" font-size="13px" font-style="normal" font-weight="normal" text-decoration="none" x="112.279541015625" y="611">12 : endTask</text></g></g><g transform="translate(2,2) scale(1,1)"><rect fill="#ffffff" stroke="none" x="269" y="616" width="13" height="28"/></g><g transform="translate(2,2) scale(1,1)"><path fill="none" stroke="#000000" d="M 269 616 L 282 616 L 282 644 L 269 644 L 269 616 Z Z" stroke-miterlimit="10"/></g><g transform="translate(2,2) scale(1,1)"><path fill="none" stroke="#000000" d="M 282 632 L 432 632" stroke-miterlimit="10"/></g><g transform="translate(2,2) scale(1,1)"><path fill="#000000" stroke="none" d="M 421.83732514237585 636.209517756016 L 432 632 L 421.83732514237585 627.790482243984"/></g><g transform="translate(2,2) scale(1,1)"><path fill="none" stroke="#000000" d="M 421.83732514237585 636.209517756016 L 432 632 L 421.83732514237585 627.790482243984 L 421.83732514237585 636.209517756016" stroke-miterlimit="10"/></g><g transform="translate(2,2) scale(1,1)"><g><path fill="none" stroke="none"/><text fill="#000000" stroke="none" font-family="Arial" font-size="13px" font-style="normal" font-weight="normal" text-decoration="none" x="320.279541015625" y="627">13 : endTask</text></g></g><g transform="translate(2,2) scale(1,1)"><rect fill="#ffffff" stroke="none" x="432" y="632" width="13" height="28"/></g><g transform="translate(2,2) scale(1,1)"><path fill="none" stroke="#000000" d="M 432 632 L 445 632 L 445 660 L 432 660 L 432 632 Z Z" stroke-miterlimit="10"/></g><g transform="translate(2,2) scale(1,1)"><path fill="none" stroke="#000000" d="M 445 640 L 581 640" stroke-miterlimit="10"/></g><g transform="translate(2,2) scale(1,1)"><path fill="#000000" stroke="none" d="M 570.8373251423759 644.209517756016 L 581 640 L 570.8373251423758 635.790482243984"/></g><g transform="translate(2,2) scale(1,1)"><path fill="none" stroke="#000000" d="M 570.8373251423759 644.209517756016 L 581 640 L 570.8373251423758 635.790482243984 L 570.8373251423759 644.209517756016" stroke-miterlimit="10"/></g><g transform="translate(2,2) scale(1,1)"><g><path fill="none" stroke="none"/><text fill="#000000" stroke="none" font-family="Arial" font-size="13px" font-style="normal" font-weight="normal" text-decoration="none" x="476.54541015625" y="634">14 : endTask</text></g></g><g transform="translate(2,2) scale(1,1)"><rect fill="#ffffff" stroke="none" x="581" y="640" width="13" height="28"/></g><g transform="translate(2,2) scale(1,1)"><path fill="none" stroke="#000000" d="M 581 640 L 594 640 L 594 668 L 581 668 L 581 640 Z Z" stroke-miterlimit="10"/></g><g transform="translate(2,2) scale(1,1)"><path fill="none" stroke="#000000" d="M 40 264 L 632 264 L 632 560 L 40 560 L 40 264" stroke-miterlimit="10"/></g><g transform="translate(2,2) scale(1,1)"><path fill="#ffffff" stroke="none" d="M 40 264 L 40 286 L 186.81884765625 286 L 197.81884765625 275 L 197.81884765625 264 L 40 264"/></g><g transform="translate(2,2) scale(1,1)"><path fill="none" stroke="#000000" d="M 40 264 L 40 286 L 186.81884765625 286 L 197.81884765625 275 L 197.81884765625 264 L 40 264 L 40 264" stroke-miterlimit="10"/></g><g transform="translate(2,2) scale(1,1)"><g><path fill="none" stroke="none"/><text fill="#000000" stroke="none" font-family="Arial" font-size="13px" font-style="normal" font-weight="normal" text-decoration="none" x="69.07177734375" y="280">upload task content</text></g></g><g transform="translate(2,2) scale(1,1)"><g><path fill="none" stroke="none"/><text fill="#000000" stroke="none" font-family="Arial" font-size="13px" font-style="normal" font-weight="bold" text-decoration="none" x="43.930419921875" y="279.5">opt</text></g></g><g transform="translate(2,2) scale(1,1)"><path fill="none" stroke="#000000" d="M 56 304 L 616 304 L 616 528 L 56 528 L 56 304" stroke-miterlimit="10"/></g><g transform="translate(2,2) scale(1,1)"><path fill="#ffffff" stroke="none" d="M 56 304 L 56 326 L 135.6162109375 326 L 146.6162109375 315 L 146.6162109375 304 L 56 304"/></g><g transform="translate(2,2) scale(1,1)"><path fill="none" stroke="#000000" d="M 56 304 L 56 326 L 135.6162109375 326 L 146.6162109375 315 L 146.6162109375 304 L 56 304 L 56 304" stroke-miterlimit="10"/></g><g transform="translate(2,2) scale(1,1)"><g><path fill="none" stroke="none"/><text fill="#000000" stroke="none" font-family="Arial" font-size="13px" font-style="normal" font-weight="normal" text-decoration="none" x="91.578125" y="320">upload</text></g></g><g transform="translate(2,2) scale(1,1)"><g><path fill="none" stroke="none"/><text fill="#000000" stroke="none" font-family="Arial" font-size="13px" font-style="normal" font-weight="bold" text-decoration="none" x="59.57177734375" y="320">loop</text></g></g><g transform="translate(2,2) scale(1,1)"><path fill="none" stroke="#000000" d="M 40 568 L 632 568 L 632 680 L 40 680 L 40 568" stroke-miterlimit="10"/></g><g transform="translate(2,2) scale(1,1)"><path fill="#ffffff" stroke="none" d="M 40 568 L 40 590 L 123.21533203125 590 L 134.21533203125 579 L 134.21533203125 568 L 40 568"/></g><g transform="translate(2,2) scale(1,1)"><path fill="none" stroke="#000000" d="M 40 568 L 40 590 L 123.21533203125 590 L 134.21533203125 579 L 134.21533203125 568 L 40 568 L 40 568" stroke-miterlimit="10"/></g><g transform="translate(2,2) scale(1,1)"><g><path fill="none" stroke="none"/><text fill="#000000" stroke="none" font-family="Arial" font-size="13px" font-style="normal" font-weight="normal" text-decoration="none" x="69.07177734375" y="584">end task</text></g></g><g transform="translate(2,2) scale(1,1)"><g><path fill="none" stroke="none"/><text fill="#000000" stroke="none" font-family="Arial" font-size="13px" font-style="normal" font-weight="bold" text-decoration="none" x="43.930419921875" y="583.5">opt</text></g></g></g></svg>